<?xml version="1.0" encoding="utf-8"?>
<!-- Generator: Adobe Illustrator 16.0.0, SVG Export Plug-In . SVG Version: 6.00 Build 0)  -->
<!DOCTYPE svg PUBLIC "-//W3C//DTD SVG 1.1//EN" "http://www.w3.org/Graphics/SVG/1.1/DTD/svg11.dtd">
<svg version="1.1" id="Layer_1" xmlns="http://www.w3.org/2000/svg" xmlns:xlink="http://www.w3.org/1999/xlink" x="0px" y="0px"
	 width="16px" height="16px" viewBox="0 0 16 16" enable-background="new 0 0 16 16" xml:space="preserve">
<circle fill="none" stroke="#787878" stroke-miterlimit="10" cx="28.062" cy="10.123" r="3.471"/>
<polyline fill="#787878" stroke="#787878" stroke-linejoin="round" stroke-miterlimit="10" points="28.75,6.721 28.75,5.938 
	27.375,5.938 27.375,6.721 "/>
<polyline fill="#787878" stroke="#787878" stroke-linejoin="round" stroke-miterlimit="10" points="25.46,7.826 24.781,7.434 
	24.094,8.625 24.772,9.017 "/>
<polyline fill="#787878" stroke="#787878" stroke-linejoin="round" stroke-miterlimit="10" points="24.772,11.228 24.093,11.619 
	24.78,12.811 25.459,12.418 "/>
<polyline fill="#787878" stroke="#787878" stroke-linejoin="round" stroke-miterlimit="10" points="27.374,13.523 27.373,14.309 
	28.749,14.309 28.748,13.524 "/>
<polyline fill="#787878" stroke="#787878" stroke-linejoin="round" stroke-miterlimit="10" points="30.663,12.419 31.343,12.812 
	32.03,11.621 31.351,11.229 "/>
<polyline fill="#787878" stroke="#787878" stroke-linejoin="round" stroke-miterlimit="10" points="31.351,9.018 32.032,8.627 
	31.344,7.435 30.665,7.828 "/>
<circle fill="#787878" stroke="#787878" stroke-linejoin="round" stroke-miterlimit="10" cx="28.062" cy="10.123" r="1.594"/>
<circle fill="none" stroke="#787878" stroke-width="1.5" stroke-miterlimit="10" cx="28.062" cy="34.424" r="3.036"/>
<polyline fill="#787878" stroke="#787878" stroke-linejoin="round" stroke-miterlimit="10" points="28.75,31.467 28.65,29.5 
	27.475,29.5 27.375,31.466 "/>
<polyline fill="#787878" stroke="#787878" stroke-linejoin="round" stroke-miterlimit="10" points="26.457,31.847 24.996,30.526 
	24.165,31.357 25.484,32.818 "/>
<polyline fill="#787878" stroke="#787878" stroke-linejoin="round" stroke-miterlimit="10" points="25.104,33.736 23.138,33.836 
	23.138,35.012 25.104,35.111 "/>
<polyline fill="#787878" stroke="#787878" stroke-linejoin="round" stroke-miterlimit="10" points="25.484,36.029 24.164,37.49 
	24.995,38.322 26.456,37.002 "/>
<polyline fill="#787878" stroke="#787878" stroke-linejoin="round" stroke-miterlimit="10" points="27.374,37.383 27.474,39.349 
	28.649,39.35 28.749,37.383 "/>
<polyline fill="#787878" stroke="#787878" stroke-linejoin="round" stroke-miterlimit="10" points="29.668,37.003 31.128,38.322 
	31.96,37.492 30.64,36.031 "/>
<polyline fill="#787878" stroke="#787878" stroke-linejoin="round" stroke-miterlimit="10" points="31.021,35.113 32.986,35.013 
	32.987,33.838 31.021,33.738 "/>
<polyline fill="#787878" stroke="#787878" stroke-linejoin="round" stroke-miterlimit="10" points="30.642,32.82 31.96,31.358 
	31.13,30.527 29.67,31.847 "/>
<path fill="#787878" d="M49.249,33.339l-1.363-0.069c-0.062-0.195-0.14-0.383-0.231-0.563l0.913-1.013
	c0.179-0.197,0.171-0.5-0.018-0.688l-0.83-0.831c-0.188-0.189-0.493-0.194-0.688-0.018L46.02,31.07
	c-0.181-0.093-0.368-0.17-0.564-0.233l-0.069-1.362C45.373,29.209,45.153,29,44.887,29h-1.176c-0.267,0-0.486,0.209-0.499,0.475
	l-0.069,1.362c-0.195,0.063-0.383,0.14-0.563,0.233l-1.012-0.915c-0.195-0.177-0.499-0.172-0.688,0.018l-0.831,0.831
	c-0.188,0.188-0.196,0.491-0.018,0.688l0.914,1.013c-0.093,0.18-0.169,0.367-0.232,0.562l-1.363,0.069
	c-0.266,0.013-0.475,0.232-0.475,0.499v1.176c0,0.267,0.209,0.486,0.475,0.499l1.363,0.069c0.063,0.195,0.14,0.383,0.232,0.562
	l-0.915,1.013c-0.179,0.197-0.171,0.5,0.018,0.688l0.831,0.832c0.097,0.098,0.226,0.146,0.354,0.146c0.12,0,0.24-0.043,0.335-0.129
	l1.013-0.916c0.181,0.093,0.367,0.17,0.562,0.232l0.069,1.364c0.013,0.266,0.232,0.475,0.499,0.475l1.176,0.001
	c0.267,0,0.486-0.209,0.499-0.475l0.069-1.364c0.195-0.063,0.383-0.14,0.562-0.232l1.013,0.915c0.095,0.086,0.215,0.129,0.335,0.129
	c0.128,0,0.256-0.049,0.354-0.146l0.832-0.83c0.188-0.188,0.196-0.491,0.018-0.688l-0.915-1.013
	c0.093-0.181,0.169-0.367,0.232-0.563l1.363-0.069c0.266-0.014,0.475-0.232,0.475-0.499l0.001-1.175
	C49.724,33.572,49.515,33.352,49.249,33.339z M44.299,36.71c-1.261,0-2.286-1.025-2.286-2.286s1.025-2.286,2.286-2.286
	s2.286,1.025,2.286,2.286S45.56,36.71,44.299,36.71z"/>
<path fill="#787878" d="M4.101,11.277v-1.176c0-0.791,0.61-1.441,1.394-1.496C4.979,8.014,5.008,7.121,5.567,6.562l0.831-0.831
	c0.283-0.283,0.66-0.439,1.061-0.439c0.066,0,0.127,0.026,0.192,0.035c0.227-0.584,0.312-1.106,0.36-1.565
	c0.098-0.908-0.008-2.154-0.623-2.855c-0.614-0.7-1.396-0.787-1.396-0.787L5.497,0.064H5.495L5.003,0.119
	c0,0-0.783,0.087-1.398,0.787C2.988,1.607,2.887,2.853,2.98,3.762c0.061,0.582,0.17,1.262,0.576,2.049
	c0.273,0.533,0.34,0.617,0.354,1.01c0.021,0.594,0.027,1.152-0.672,1.537C2.542,8.74,1.672,8.865,0.834,9.447
	c-0.596,0.41-0.71,1.033-0.78,1.459l-0.051,0.408c-0.029,0.273,0.173,0.496,0.448,0.496H4.2C4.137,11.645,4.101,11.465,4.101,11.277
	z"/>
<path fill="#787878" d="M15.476,9.433l-1.363-0.069C14.05,9.168,13.973,8.98,13.881,8.8l0.913-1.013
	c0.179-0.197,0.171-0.5-0.018-0.688l-0.83-0.831c-0.188-0.189-0.493-0.194-0.688-0.018l-1.012,0.914
	c-0.181-0.093-0.368-0.17-0.564-0.233l-0.069-1.362C11.6,5.303,11.38,5.094,11.113,5.094H9.938c-0.267,0-0.486,0.209-0.499,0.475
	L9.369,6.931C9.174,6.994,8.986,7.07,8.806,7.164L7.794,6.249C7.599,6.072,7.295,6.077,7.105,6.267L6.274,7.098
	C6.086,7.286,6.078,7.589,6.257,7.786l0.914,1.013c-0.093,0.18-0.169,0.367-0.232,0.562L5.575,9.431
	C5.31,9.443,5.101,9.663,5.101,9.93v1.176c0,0.267,0.209,0.486,0.475,0.499l1.363,0.069c0.063,0.195,0.14,0.383,0.232,0.562
	l-0.915,1.013c-0.179,0.197-0.171,0.5,0.018,0.688l0.831,0.832c0.097,0.098,0.226,0.146,0.354,0.146c0.12,0,0.24-0.043,0.335-0.129
	l1.013-0.916c0.181,0.093,0.367,0.17,0.562,0.232l0.069,1.364c0.013,0.266,0.232,0.475,0.499,0.475l1.176,0.001
	c0.267,0,0.486-0.209,0.499-0.475l0.069-1.364c0.195-0.063,0.383-0.14,0.562-0.232l1.013,0.915c0.095,0.086,0.215,0.129,0.335,0.129
	c0.128,0,0.256-0.049,0.354-0.146l0.832-0.83c0.188-0.188,0.196-0.491,0.018-0.688l-0.915-1.013
	c0.093-0.181,0.169-0.367,0.232-0.563l1.363-0.069c0.266-0.014,0.475-0.232,0.475-0.499l0.001-1.175
	C15.95,9.666,15.741,9.445,15.476,9.433z M10.525,12.804c-1.261,0-2.286-1.025-2.286-2.286s1.025-2.286,2.286-2.286
	s2.286,1.025,2.286,2.286S11.786,12.804,10.525,12.804z"/>
<circle fill="none" stroke="#787878" stroke-miterlimit="10" cx="28.062" cy="22.092" r="3.471"/>
<polyline fill="#787878" stroke="#787878" stroke-linejoin="round" stroke-miterlimit="10" points="28.75,18.621 28.75,17.671 
	27.375,17.671 27.375,18.621 "/>
<polyline fill="#787878" stroke="#787878" stroke-linejoin="round" stroke-miterlimit="10" points="26.094,19.152 25.422,18.48 
	24.449,19.453 25.121,20.125 "/>
<polyline fill="#787878" stroke="#787878" stroke-linejoin="round" stroke-miterlimit="10" points="24.591,21.406 23.641,21.406 
	23.641,22.781 24.592,22.781 "/>
<polyline fill="#787878" stroke="#787878" stroke-linejoin="round" stroke-miterlimit="10" points="25.122,24.062 24.45,24.734 
	25.422,25.707 26.095,25.034 "/>
<polyline fill="#787878" stroke="#787878" stroke-linejoin="round" stroke-miterlimit="10" points="27.376,25.565 27.376,26.516 
	28.75,26.516 28.751,25.564 "/>
<polyline fill="#787878" stroke="#787878" stroke-linejoin="round" stroke-miterlimit="10" points="30.032,25.034 30.704,25.706 
	31.676,24.734 31.004,24.061 "/>
<polyline fill="#787878" stroke="#787878" stroke-linejoin="round" stroke-miterlimit="10" points="31.535,22.78 32.485,22.78 
	32.485,21.406 31.533,21.404 "/>
<polyline fill="#787878" stroke="#787878" stroke-linejoin="round" stroke-miterlimit="10" points="31.004,20.124 31.676,19.452 
	30.704,18.48 30.029,19.152 "/>
<circle fill="#787878" stroke="#787878" stroke-linejoin="round" stroke-miterlimit="10" cx="28.062" cy="22.092" r="1.594"/>
<g>
	<path fill="#787878" d="M48.062,11.188l-0.348-0.2c0.062-0.279,0.101-0.566,0.101-0.864c0-0.297-0.038-0.584-0.101-0.862l0.349-0.2
		c0.115-0.065,0.199-0.175,0.233-0.304c0.035-0.128,0.017-0.265-0.05-0.38l-0.688-1.192c-0.066-0.115-0.176-0.199-0.304-0.233
		c-0.127-0.036-0.264-0.016-0.38,0.05l-0.355,0.206c-0.422-0.388-0.928-0.677-1.487-0.854V5.938c0-0.276-0.224-0.5-0.5-0.5h-1.375
		c-0.276,0-0.5,0.224-0.5,0.5v0.417c-0.559,0.177-1.064,0.466-1.486,0.854l-0.357-0.207c-0.114-0.066-0.252-0.083-0.379-0.05
		c-0.129,0.034-0.238,0.118-0.304,0.233l-0.688,1.191c-0.066,0.115-0.085,0.251-0.051,0.38c0.035,0.128,0.118,0.237,0.233,0.303
		l0.349,0.201c-0.062,0.279-0.101,0.566-0.101,0.864c0,0.297,0.038,0.583,0.1,0.861l-0.349,0.201
		c-0.114,0.066-0.198,0.176-0.232,0.304c-0.035,0.128-0.017,0.265,0.05,0.38l0.688,1.191c0.065,0.115,0.175,0.198,0.304,0.233
		c0.042,0.011,0.086,0.017,0.129,0.017c0.087,0,0.174-0.022,0.25-0.067l0.356-0.206c0.422,0.388,0.928,0.678,1.486,0.854v0.416
		c0,0.133,0.053,0.261,0.146,0.354s0.221,0.146,0.354,0.146h1.376c0.133,0,0.26-0.053,0.354-0.146s0.146-0.222,0.146-0.354
		l-0.001-0.415c0.56-0.177,1.065-0.466,1.488-0.854l0.355,0.206c0.077,0.045,0.164,0.067,0.251,0.067
		c0.043,0,0.087-0.006,0.129-0.017c0.129-0.034,0.238-0.118,0.304-0.233l0.688-1.191c0.066-0.115,0.085-0.252,0.05-0.38
		C48.26,11.363,48.176,11.254,48.062,11.188z M43.844,13.094c-1.638,0-2.971-1.333-2.971-2.971c0-1.638,1.333-2.971,2.971-2.971
		s2.971,1.333,2.971,2.971C46.814,11.761,45.481,13.094,43.844,13.094z"/>
	<circle fill="#787878" cx="43.844" cy="10.123" r="2.094"/>
</g>
</svg>
