<?xml version="1.0" encoding="utf-8"?>
<!-- Generator: Adobe Illustrator 16.0.0, SVG Export Plug-In . SVG Version: 6.00 Build 0)  -->
<!DOCTYPE svg PUBLIC "-//W3C//DTD SVG 1.1//EN" "http://www.w3.org/Graphics/SVG/1.1/DTD/svg11.dtd">
<svg version="1.1" id="Layer_1" xmlns="http://www.w3.org/2000/svg" xmlns:xlink="http://www.w3.org/1999/xlink" x="0px" y="0px"
	 width="1200px" height="200px" viewBox="0 0 1200 200" enable-background="new 0 0 1200 200" xml:space="preserve">
<path fill="#BED016" d="M0,200V57.285l23.714-18.572l24.286,5l64.286-2.143l57.143-15L203,63.713L248.714,50l65,60.142
	l42.143-30.714l71.428,29.286l56.429-17.143l32.857,22.857l32.857-25.714L600,127.285l93-40.714l71.429,44.286l67.857-27.214
	l55,21.5l42.143-34.286L1018,130.142l59.286-47.857l60.714,50c0,0,14.999-52.857,17.143-52.143S1200,57.285,1200,57.285V200H0z"/>
<polygon fill="#95C11F" points="0,200 0,38.713 22.428,54.428 79.429,34.428 92.286,42.286 138,25.143 170.857,53.714 261.571,93 
	303,68 389.428,115.143 438.572,96 582.143,138.857 645.143,93 742.286,137.285 960.857,124.428 1020.143,89.428 1100.857,133.714 
	1129.286,107.429 1155,129.572 1200,38.713 1200,200 "/>
<polygon fill="#1CA638" points="0,200 0,93.357 65.143,38.713 107.286,71.786 147.286,46.928 315.857,131.571 375.143,99 
	431.571,131.928 537.143,155.286 654.286,126 715.857,144.071 769.683,108.144 852.286,162.285 956.571,146.214 1001.429,123.857 
	1057.286,89.786 1126.571,134.428 1169.286,100 1200,93.357 1200,200 "/>
</svg>
